# xmcd
#
# Track frame offsets: 
#        150
#        22166
#        41040
#        99805
#        121772
#        133526
#        153791
#        175447
#        196524
#        217195
#        244958
#
# Disc length: 3536 seconds
#
# Revision: 0
# Processed by: cddbd v1.5.2PL0 Copyright (c) Steve Scherf et al.
# Submitted via: ExactAudioCopy v1.0b3
#
DISCID=900dce0b
DTITLE=Cody Canada - Some Old, Some New, Maybe A Cover Or Two - CD 2
DYEAR=2013
DGENRE=Americana
TTITLE0=Harvest Moon
TTITLE1=Bluebonnets
TTITLE2=51 Pieces
TTITLE3=Constantly
TTITLE4=Flowers
TTITLE5=Cold Hard Fact
TTITLE6=Dead Man
TTITLE7=Broken
TTITLE8=Brooklyn Kid
TTITLE9=Damned Old Happy Times
TTITLE10=Unwound
EXTD=
EXTT0=
EXTT1=
EXTT2=
EXTT3=
EXTT4=
EXTT5=
EXTT6=
EXTT7=
EXTT8=
EXTT9=
EXTT10=
PLAYORDER=
